<mxfile host="app.diagrams.net" modified="2024-01-19T14:15:23.664Z" agent="Mozilla/5.0 (Windows NT 10.0; Win64; x64) AppleWebKit/537.36 (KHTML, like Gecko) Chrome/120.0.0.0 Safari/537.36 OPR/106.0.0.0" etag="QMJ5CHlcZZPePUFHrVDM" version="22.1.21" type="device">
  <diagram name="Strona-1" id="yzOehdTTd_eHiyw4VIKx">
    <mxGraphModel dx="1393" dy="789" grid="1" gridSize="10" guides="1" tooltips="1" connect="1" arrows="1" fold="1" page="1" pageScale="1" pageWidth="827" pageHeight="1169" math="0" shadow="0">
      <root>
        <mxCell id="0" />
        <mxCell id="1" parent="0" />
        <mxCell id="7I72lRixaY-VdKnY33JF-1" value="Administracja" style="shape=table;startSize=30;container=1;collapsible=1;childLayout=tableLayout;fixedRows=1;rowLines=0;fontStyle=1;align=center;resizeLast=1;html=1;" parent="1" vertex="1">
          <mxGeometry x="80" y="60" width="180" height="90" as="geometry" />
        </mxCell>
        <mxCell id="7I72lRixaY-VdKnY33JF-2" value="" style="shape=tableRow;horizontal=0;startSize=0;swimlaneHead=0;swimlaneBody=0;fillColor=none;collapsible=0;dropTarget=0;points=[[0,0.5],[1,0.5]];portConstraint=eastwest;top=0;left=0;right=0;bottom=1;" parent="7I72lRixaY-VdKnY33JF-1" vertex="1">
          <mxGeometry y="30" width="180" height="30" as="geometry" />
        </mxCell>
        <mxCell id="7I72lRixaY-VdKnY33JF-3" value="PK" style="shape=partialRectangle;connectable=0;fillColor=none;top=0;left=0;bottom=0;right=0;fontStyle=1;overflow=hidden;whiteSpace=wrap;html=1;" parent="7I72lRixaY-VdKnY33JF-2" vertex="1">
          <mxGeometry width="30" height="30" as="geometry">
            <mxRectangle width="30" height="30" as="alternateBounds" />
          </mxGeometry>
        </mxCell>
        <mxCell id="7I72lRixaY-VdKnY33JF-4" value="id" style="shape=partialRectangle;connectable=0;fillColor=none;top=0;left=0;bottom=0;right=0;align=left;spacingLeft=6;fontStyle=5;overflow=hidden;whiteSpace=wrap;html=1;" parent="7I72lRixaY-VdKnY33JF-2" vertex="1">
          <mxGeometry x="30" width="150" height="30" as="geometry">
            <mxRectangle width="150" height="30" as="alternateBounds" />
          </mxGeometry>
        </mxCell>
        <mxCell id="7I72lRixaY-VdKnY33JF-5" value="" style="shape=tableRow;horizontal=0;startSize=0;swimlaneHead=0;swimlaneBody=0;fillColor=none;collapsible=0;dropTarget=0;points=[[0,0.5],[1,0.5]];portConstraint=eastwest;top=0;left=0;right=0;bottom=0;" parent="7I72lRixaY-VdKnY33JF-1" vertex="1">
          <mxGeometry y="60" width="180" height="30" as="geometry" />
        </mxCell>
        <mxCell id="7I72lRixaY-VdKnY33JF-6" value="FK" style="shape=partialRectangle;connectable=0;fillColor=none;top=0;left=0;bottom=0;right=0;editable=1;overflow=hidden;whiteSpace=wrap;html=1;" parent="7I72lRixaY-VdKnY33JF-5" vertex="1">
          <mxGeometry width="30" height="30" as="geometry">
            <mxRectangle width="30" height="30" as="alternateBounds" />
          </mxGeometry>
        </mxCell>
        <mxCell id="7I72lRixaY-VdKnY33JF-7" value="id_uzytkownika_admin&amp;nbsp;" style="shape=partialRectangle;connectable=0;fillColor=none;top=0;left=0;bottom=0;right=0;align=left;spacingLeft=6;overflow=hidden;whiteSpace=wrap;html=1;" parent="7I72lRixaY-VdKnY33JF-5" vertex="1">
          <mxGeometry x="30" width="150" height="30" as="geometry">
            <mxRectangle width="150" height="30" as="alternateBounds" />
          </mxGeometry>
        </mxCell>
        <mxCell id="7I72lRixaY-VdKnY33JF-14" value="Głosowania" style="shape=table;startSize=30;container=1;collapsible=1;childLayout=tableLayout;fixedRows=1;rowLines=0;fontStyle=1;align=center;resizeLast=1;html=1;" parent="1" vertex="1">
          <mxGeometry x="340" y="400" width="180" height="300" as="geometry" />
        </mxCell>
        <mxCell id="7I72lRixaY-VdKnY33JF-15" value="" style="shape=tableRow;horizontal=0;startSize=0;swimlaneHead=0;swimlaneBody=0;fillColor=none;collapsible=0;dropTarget=0;points=[[0,0.5],[1,0.5]];portConstraint=eastwest;top=0;left=0;right=0;bottom=1;" parent="7I72lRixaY-VdKnY33JF-14" vertex="1">
          <mxGeometry y="30" width="180" height="30" as="geometry" />
        </mxCell>
        <mxCell id="7I72lRixaY-VdKnY33JF-16" value="PK" style="shape=partialRectangle;connectable=0;fillColor=none;top=0;left=0;bottom=0;right=0;fontStyle=1;overflow=hidden;whiteSpace=wrap;html=1;" parent="7I72lRixaY-VdKnY33JF-15" vertex="1">
          <mxGeometry width="70" height="30" as="geometry">
            <mxRectangle width="70" height="30" as="alternateBounds" />
          </mxGeometry>
        </mxCell>
        <mxCell id="7I72lRixaY-VdKnY33JF-17" value="id" style="shape=partialRectangle;connectable=0;fillColor=none;top=0;left=0;bottom=0;right=0;align=left;spacingLeft=6;fontStyle=5;overflow=hidden;whiteSpace=wrap;html=1;" parent="7I72lRixaY-VdKnY33JF-15" vertex="1">
          <mxGeometry x="70" width="110" height="30" as="geometry">
            <mxRectangle width="110" height="30" as="alternateBounds" />
          </mxGeometry>
        </mxCell>
        <mxCell id="7I72lRixaY-VdKnY33JF-18" value="" style="shape=tableRow;horizontal=0;startSize=0;swimlaneHead=0;swimlaneBody=0;fillColor=none;collapsible=0;dropTarget=0;points=[[0,0.5],[1,0.5]];portConstraint=eastwest;top=0;left=0;right=0;bottom=0;" parent="7I72lRixaY-VdKnY33JF-14" vertex="1">
          <mxGeometry y="60" width="180" height="30" as="geometry" />
        </mxCell>
        <mxCell id="7I72lRixaY-VdKnY33JF-19" value="varchar(65)" style="shape=partialRectangle;connectable=0;fillColor=none;top=0;left=0;bottom=0;right=0;editable=1;overflow=hidden;whiteSpace=wrap;html=1;" parent="7I72lRixaY-VdKnY33JF-18" vertex="1">
          <mxGeometry width="70" height="30" as="geometry">
            <mxRectangle width="70" height="30" as="alternateBounds" />
          </mxGeometry>
        </mxCell>
        <mxCell id="7I72lRixaY-VdKnY33JF-20" value="tytuł" style="shape=partialRectangle;connectable=0;fillColor=none;top=0;left=0;bottom=0;right=0;align=left;spacingLeft=6;overflow=hidden;whiteSpace=wrap;html=1;" parent="7I72lRixaY-VdKnY33JF-18" vertex="1">
          <mxGeometry x="70" width="110" height="30" as="geometry">
            <mxRectangle width="110" height="30" as="alternateBounds" />
          </mxGeometry>
        </mxCell>
        <mxCell id="7I72lRixaY-VdKnY33JF-21" value="" style="shape=tableRow;horizontal=0;startSize=0;swimlaneHead=0;swimlaneBody=0;fillColor=none;collapsible=0;dropTarget=0;points=[[0,0.5],[1,0.5]];portConstraint=eastwest;top=0;left=0;right=0;bottom=0;" parent="7I72lRixaY-VdKnY33JF-14" vertex="1">
          <mxGeometry y="90" width="180" height="30" as="geometry" />
        </mxCell>
        <mxCell id="7I72lRixaY-VdKnY33JF-22" value="text" style="shape=partialRectangle;connectable=0;fillColor=none;top=0;left=0;bottom=0;right=0;editable=1;overflow=hidden;whiteSpace=wrap;html=1;" parent="7I72lRixaY-VdKnY33JF-21" vertex="1">
          <mxGeometry width="70" height="30" as="geometry">
            <mxRectangle width="70" height="30" as="alternateBounds" />
          </mxGeometry>
        </mxCell>
        <mxCell id="7I72lRixaY-VdKnY33JF-23" value="opis" style="shape=partialRectangle;connectable=0;fillColor=none;top=0;left=0;bottom=0;right=0;align=left;spacingLeft=6;overflow=hidden;whiteSpace=wrap;html=1;" parent="7I72lRixaY-VdKnY33JF-21" vertex="1">
          <mxGeometry x="70" width="110" height="30" as="geometry">
            <mxRectangle width="110" height="30" as="alternateBounds" />
          </mxGeometry>
        </mxCell>
        <mxCell id="7I72lRixaY-VdKnY33JF-24" value="" style="shape=tableRow;horizontal=0;startSize=0;swimlaneHead=0;swimlaneBody=0;fillColor=none;collapsible=0;dropTarget=0;points=[[0,0.5],[1,0.5]];portConstraint=eastwest;top=0;left=0;right=0;bottom=0;" parent="7I72lRixaY-VdKnY33JF-14" vertex="1">
          <mxGeometry y="120" width="180" height="30" as="geometry" />
        </mxCell>
        <mxCell id="7I72lRixaY-VdKnY33JF-25" value="timestamp" style="shape=partialRectangle;connectable=0;fillColor=none;top=0;left=0;bottom=0;right=0;editable=1;overflow=hidden;whiteSpace=wrap;html=1;" parent="7I72lRixaY-VdKnY33JF-24" vertex="1">
          <mxGeometry width="70" height="30" as="geometry">
            <mxRectangle width="70" height="30" as="alternateBounds" />
          </mxGeometry>
        </mxCell>
        <mxCell id="7I72lRixaY-VdKnY33JF-26" value="rozpoczęcie" style="shape=partialRectangle;connectable=0;fillColor=none;top=0;left=0;bottom=0;right=0;align=left;spacingLeft=6;overflow=hidden;whiteSpace=wrap;html=1;" parent="7I72lRixaY-VdKnY33JF-24" vertex="1">
          <mxGeometry x="70" width="110" height="30" as="geometry">
            <mxRectangle width="110" height="30" as="alternateBounds" />
          </mxGeometry>
        </mxCell>
        <mxCell id="7I72lRixaY-VdKnY33JF-93" value="" style="shape=tableRow;horizontal=0;startSize=0;swimlaneHead=0;swimlaneBody=0;fillColor=none;collapsible=0;dropTarget=0;points=[[0,0.5],[1,0.5]];portConstraint=eastwest;top=0;left=0;right=0;bottom=0;" parent="7I72lRixaY-VdKnY33JF-14" vertex="1">
          <mxGeometry y="150" width="180" height="30" as="geometry" />
        </mxCell>
        <mxCell id="7I72lRixaY-VdKnY33JF-94" value="timestamp" style="shape=partialRectangle;connectable=0;fillColor=none;top=0;left=0;bottom=0;right=0;editable=1;overflow=hidden;" parent="7I72lRixaY-VdKnY33JF-93" vertex="1">
          <mxGeometry width="70" height="30" as="geometry">
            <mxRectangle width="70" height="30" as="alternateBounds" />
          </mxGeometry>
        </mxCell>
        <mxCell id="7I72lRixaY-VdKnY33JF-95" value="zakończenie" style="shape=partialRectangle;connectable=0;fillColor=none;top=0;left=0;bottom=0;right=0;align=left;spacingLeft=6;overflow=hidden;" parent="7I72lRixaY-VdKnY33JF-93" vertex="1">
          <mxGeometry x="70" width="110" height="30" as="geometry">
            <mxRectangle width="110" height="30" as="alternateBounds" />
          </mxGeometry>
        </mxCell>
        <mxCell id="7I72lRixaY-VdKnY33JF-102" value="" style="shape=tableRow;horizontal=0;startSize=0;swimlaneHead=0;swimlaneBody=0;fillColor=none;collapsible=0;dropTarget=0;points=[[0,0.5],[1,0.5]];portConstraint=eastwest;top=0;left=0;right=0;bottom=0;" parent="7I72lRixaY-VdKnY33JF-14" vertex="1">
          <mxGeometry y="180" width="180" height="30" as="geometry" />
        </mxCell>
        <mxCell id="7I72lRixaY-VdKnY33JF-103" value="tinyint(1)" style="shape=partialRectangle;connectable=0;fillColor=none;top=0;left=0;bottom=0;right=0;editable=1;overflow=hidden;" parent="7I72lRixaY-VdKnY33JF-102" vertex="1">
          <mxGeometry width="70" height="30" as="geometry">
            <mxRectangle width="70" height="30" as="alternateBounds" />
          </mxGeometry>
        </mxCell>
        <mxCell id="7I72lRixaY-VdKnY33JF-104" value="kworum" style="shape=partialRectangle;connectable=0;fillColor=none;top=0;left=0;bottom=0;right=0;align=left;spacingLeft=6;overflow=hidden;" parent="7I72lRixaY-VdKnY33JF-102" vertex="1">
          <mxGeometry x="70" width="110" height="30" as="geometry">
            <mxRectangle width="110" height="30" as="alternateBounds" />
          </mxGeometry>
        </mxCell>
        <mxCell id="7I72lRixaY-VdKnY33JF-105" value="" style="shape=tableRow;horizontal=0;startSize=0;swimlaneHead=0;swimlaneBody=0;fillColor=none;collapsible=0;dropTarget=0;points=[[0,0.5],[1,0.5]];portConstraint=eastwest;top=0;left=0;right=0;bottom=0;" parent="7I72lRixaY-VdKnY33JF-14" vertex="1">
          <mxGeometry y="210" width="180" height="30" as="geometry" />
        </mxCell>
        <mxCell id="7I72lRixaY-VdKnY33JF-106" value="int(11)" style="shape=partialRectangle;connectable=0;fillColor=none;top=0;left=0;bottom=0;right=0;editable=1;overflow=hidden;" parent="7I72lRixaY-VdKnY33JF-105" vertex="1">
          <mxGeometry width="70" height="30" as="geometry">
            <mxRectangle width="70" height="30" as="alternateBounds" />
          </mxGeometry>
        </mxCell>
        <mxCell id="7I72lRixaY-VdKnY33JF-107" value="zwykłe" style="shape=partialRectangle;connectable=0;fillColor=none;top=0;left=0;bottom=0;right=0;align=left;spacingLeft=6;overflow=hidden;" parent="7I72lRixaY-VdKnY33JF-105" vertex="1">
          <mxGeometry x="70" width="110" height="30" as="geometry">
            <mxRectangle width="110" height="30" as="alternateBounds" />
          </mxGeometry>
        </mxCell>
        <mxCell id="7I72lRixaY-VdKnY33JF-99" value="" style="shape=tableRow;horizontal=0;startSize=0;swimlaneHead=0;swimlaneBody=0;fillColor=none;collapsible=0;dropTarget=0;points=[[0,0.5],[1,0.5]];portConstraint=eastwest;top=0;left=0;right=0;bottom=0;" parent="7I72lRixaY-VdKnY33JF-14" vertex="1">
          <mxGeometry y="240" width="180" height="30" as="geometry" />
        </mxCell>
        <mxCell id="7I72lRixaY-VdKnY33JF-100" value="FK" style="shape=partialRectangle;connectable=0;fillColor=none;top=0;left=0;bottom=0;right=0;editable=1;overflow=hidden;" parent="7I72lRixaY-VdKnY33JF-99" vertex="1">
          <mxGeometry width="70" height="30" as="geometry">
            <mxRectangle width="70" height="30" as="alternateBounds" />
          </mxGeometry>
        </mxCell>
        <mxCell id="7I72lRixaY-VdKnY33JF-101" value="author_id" style="shape=partialRectangle;connectable=0;fillColor=none;top=0;left=0;bottom=0;right=0;align=left;spacingLeft=6;overflow=hidden;" parent="7I72lRixaY-VdKnY33JF-99" vertex="1">
          <mxGeometry x="70" width="110" height="30" as="geometry">
            <mxRectangle width="110" height="30" as="alternateBounds" />
          </mxGeometry>
        </mxCell>
        <mxCell id="7I72lRixaY-VdKnY33JF-96" value="" style="shape=tableRow;horizontal=0;startSize=0;swimlaneHead=0;swimlaneBody=0;fillColor=none;collapsible=0;dropTarget=0;points=[[0,0.5],[1,0.5]];portConstraint=eastwest;top=0;left=0;right=0;bottom=0;" parent="7I72lRixaY-VdKnY33JF-14" vertex="1">
          <mxGeometry y="270" width="180" height="30" as="geometry" />
        </mxCell>
        <mxCell id="7I72lRixaY-VdKnY33JF-97" value="int(11)" style="shape=partialRectangle;connectable=0;fillColor=none;top=0;left=0;bottom=0;right=0;editable=1;overflow=hidden;" parent="7I72lRixaY-VdKnY33JF-96" vertex="1">
          <mxGeometry width="70" height="30" as="geometry">
            <mxRectangle width="70" height="30" as="alternateBounds" />
          </mxGeometry>
        </mxCell>
        <mxCell id="7I72lRixaY-VdKnY33JF-98" value="voting_type" style="shape=partialRectangle;connectable=0;fillColor=none;top=0;left=0;bottom=0;right=0;align=left;spacingLeft=6;overflow=hidden;" parent="7I72lRixaY-VdKnY33JF-96" vertex="1">
          <mxGeometry x="70" width="110" height="30" as="geometry">
            <mxRectangle width="110" height="30" as="alternateBounds" />
          </mxGeometry>
        </mxCell>
        <mxCell id="7I72lRixaY-VdKnY33JF-27" value="Głosy" style="shape=table;startSize=30;container=1;collapsible=1;childLayout=tableLayout;fixedRows=1;rowLines=0;fontStyle=1;align=center;resizeLast=1;html=1;" parent="1" vertex="1">
          <mxGeometry x="340" y="190" width="180" height="150" as="geometry" />
        </mxCell>
        <mxCell id="7I72lRixaY-VdKnY33JF-28" value="" style="shape=tableRow;horizontal=0;startSize=0;swimlaneHead=0;swimlaneBody=0;fillColor=none;collapsible=0;dropTarget=0;points=[[0,0.5],[1,0.5]];portConstraint=eastwest;top=0;left=0;right=0;bottom=1;" parent="7I72lRixaY-VdKnY33JF-27" vertex="1">
          <mxGeometry y="30" width="180" height="30" as="geometry" />
        </mxCell>
        <mxCell id="7I72lRixaY-VdKnY33JF-29" value="PK" style="shape=partialRectangle;connectable=0;fillColor=none;top=0;left=0;bottom=0;right=0;fontStyle=1;overflow=hidden;whiteSpace=wrap;html=1;" parent="7I72lRixaY-VdKnY33JF-28" vertex="1">
          <mxGeometry width="80" height="30" as="geometry">
            <mxRectangle width="80" height="30" as="alternateBounds" />
          </mxGeometry>
        </mxCell>
        <mxCell id="7I72lRixaY-VdKnY33JF-30" value="id" style="shape=partialRectangle;connectable=0;fillColor=none;top=0;left=0;bottom=0;right=0;align=left;spacingLeft=6;fontStyle=5;overflow=hidden;whiteSpace=wrap;html=1;" parent="7I72lRixaY-VdKnY33JF-28" vertex="1">
          <mxGeometry x="80" width="100" height="30" as="geometry">
            <mxRectangle width="100" height="30" as="alternateBounds" />
          </mxGeometry>
        </mxCell>
        <mxCell id="7I72lRixaY-VdKnY33JF-31" value="" style="shape=tableRow;horizontal=0;startSize=0;swimlaneHead=0;swimlaneBody=0;fillColor=none;collapsible=0;dropTarget=0;points=[[0,0.5],[1,0.5]];portConstraint=eastwest;top=0;left=0;right=0;bottom=0;" parent="7I72lRixaY-VdKnY33JF-27" vertex="1">
          <mxGeometry y="60" width="180" height="30" as="geometry" />
        </mxCell>
        <mxCell id="7I72lRixaY-VdKnY33JF-32" value="FK" style="shape=partialRectangle;connectable=0;fillColor=none;top=0;left=0;bottom=0;right=0;editable=1;overflow=hidden;whiteSpace=wrap;html=1;" parent="7I72lRixaY-VdKnY33JF-31" vertex="1">
          <mxGeometry width="80" height="30" as="geometry">
            <mxRectangle width="80" height="30" as="alternateBounds" />
          </mxGeometry>
        </mxCell>
        <mxCell id="7I72lRixaY-VdKnY33JF-33" value="id_użytkownika" style="shape=partialRectangle;connectable=0;fillColor=none;top=0;left=0;bottom=0;right=0;align=left;spacingLeft=6;overflow=hidden;whiteSpace=wrap;html=1;" parent="7I72lRixaY-VdKnY33JF-31" vertex="1">
          <mxGeometry x="80" width="100" height="30" as="geometry">
            <mxRectangle width="100" height="30" as="alternateBounds" />
          </mxGeometry>
        </mxCell>
        <mxCell id="7I72lRixaY-VdKnY33JF-34" value="" style="shape=tableRow;horizontal=0;startSize=0;swimlaneHead=0;swimlaneBody=0;fillColor=none;collapsible=0;dropTarget=0;points=[[0,0.5],[1,0.5]];portConstraint=eastwest;top=0;left=0;right=0;bottom=0;" parent="7I72lRixaY-VdKnY33JF-27" vertex="1">
          <mxGeometry y="90" width="180" height="30" as="geometry" />
        </mxCell>
        <mxCell id="7I72lRixaY-VdKnY33JF-35" value="FK" style="shape=partialRectangle;connectable=0;fillColor=none;top=0;left=0;bottom=0;right=0;editable=1;overflow=hidden;whiteSpace=wrap;html=1;" parent="7I72lRixaY-VdKnY33JF-34" vertex="1">
          <mxGeometry width="80" height="30" as="geometry">
            <mxRectangle width="80" height="30" as="alternateBounds" />
          </mxGeometry>
        </mxCell>
        <mxCell id="7I72lRixaY-VdKnY33JF-36" value="id_opcji" style="shape=partialRectangle;connectable=0;fillColor=none;top=0;left=0;bottom=0;right=0;align=left;spacingLeft=6;overflow=hidden;whiteSpace=wrap;html=1;" parent="7I72lRixaY-VdKnY33JF-34" vertex="1">
          <mxGeometry x="80" width="100" height="30" as="geometry">
            <mxRectangle width="100" height="30" as="alternateBounds" />
          </mxGeometry>
        </mxCell>
        <mxCell id="7I72lRixaY-VdKnY33JF-37" value="" style="shape=tableRow;horizontal=0;startSize=0;swimlaneHead=0;swimlaneBody=0;fillColor=none;collapsible=0;dropTarget=0;points=[[0,0.5],[1,0.5]];portConstraint=eastwest;top=0;left=0;right=0;bottom=0;" parent="7I72lRixaY-VdKnY33JF-27" vertex="1">
          <mxGeometry y="120" width="180" height="30" as="geometry" />
        </mxCell>
        <mxCell id="7I72lRixaY-VdKnY33JF-38" value="timestamp" style="shape=partialRectangle;connectable=0;fillColor=none;top=0;left=0;bottom=0;right=0;editable=1;overflow=hidden;whiteSpace=wrap;html=1;" parent="7I72lRixaY-VdKnY33JF-37" vertex="1">
          <mxGeometry width="80" height="30" as="geometry">
            <mxRectangle width="80" height="30" as="alternateBounds" />
          </mxGeometry>
        </mxCell>
        <mxCell id="7I72lRixaY-VdKnY33JF-39" value="data_dodadnia" style="shape=partialRectangle;connectable=0;fillColor=none;top=0;left=0;bottom=0;right=0;align=left;spacingLeft=6;overflow=hidden;whiteSpace=wrap;html=1;" parent="7I72lRixaY-VdKnY33JF-37" vertex="1">
          <mxGeometry x="80" width="100" height="30" as="geometry">
            <mxRectangle width="100" height="30" as="alternateBounds" />
          </mxGeometry>
        </mxCell>
        <mxCell id="7I72lRixaY-VdKnY33JF-40" value="Opcje" style="shape=table;startSize=30;container=1;collapsible=1;childLayout=tableLayout;fixedRows=1;rowLines=0;fontStyle=1;align=center;resizeLast=1;html=1;" parent="1" vertex="1">
          <mxGeometry x="560" y="250" width="180" height="120" as="geometry" />
        </mxCell>
        <mxCell id="7I72lRixaY-VdKnY33JF-41" value="" style="shape=tableRow;horizontal=0;startSize=0;swimlaneHead=0;swimlaneBody=0;fillColor=none;collapsible=0;dropTarget=0;points=[[0,0.5],[1,0.5]];portConstraint=eastwest;top=0;left=0;right=0;bottom=1;" parent="7I72lRixaY-VdKnY33JF-40" vertex="1">
          <mxGeometry y="30" width="180" height="30" as="geometry" />
        </mxCell>
        <mxCell id="7I72lRixaY-VdKnY33JF-42" value="PK" style="shape=partialRectangle;connectable=0;fillColor=none;top=0;left=0;bottom=0;right=0;fontStyle=1;overflow=hidden;whiteSpace=wrap;html=1;" parent="7I72lRixaY-VdKnY33JF-41" vertex="1">
          <mxGeometry width="70" height="30" as="geometry">
            <mxRectangle width="70" height="30" as="alternateBounds" />
          </mxGeometry>
        </mxCell>
        <mxCell id="7I72lRixaY-VdKnY33JF-43" value="id" style="shape=partialRectangle;connectable=0;fillColor=none;top=0;left=0;bottom=0;right=0;align=left;spacingLeft=6;fontStyle=5;overflow=hidden;whiteSpace=wrap;html=1;" parent="7I72lRixaY-VdKnY33JF-41" vertex="1">
          <mxGeometry x="70" width="110" height="30" as="geometry">
            <mxRectangle width="110" height="30" as="alternateBounds" />
          </mxGeometry>
        </mxCell>
        <mxCell id="7I72lRixaY-VdKnY33JF-44" value="" style="shape=tableRow;horizontal=0;startSize=0;swimlaneHead=0;swimlaneBody=0;fillColor=none;collapsible=0;dropTarget=0;points=[[0,0.5],[1,0.5]];portConstraint=eastwest;top=0;left=0;right=0;bottom=0;" parent="7I72lRixaY-VdKnY33JF-40" vertex="1">
          <mxGeometry y="60" width="180" height="30" as="geometry" />
        </mxCell>
        <mxCell id="7I72lRixaY-VdKnY33JF-45" value="FK" style="shape=partialRectangle;connectable=0;fillColor=none;top=0;left=0;bottom=0;right=0;editable=1;overflow=hidden;whiteSpace=wrap;html=1;" parent="7I72lRixaY-VdKnY33JF-44" vertex="1">
          <mxGeometry width="70" height="30" as="geometry">
            <mxRectangle width="70" height="30" as="alternateBounds" />
          </mxGeometry>
        </mxCell>
        <mxCell id="7I72lRixaY-VdKnY33JF-46" value="id_głosowania" style="shape=partialRectangle;connectable=0;fillColor=none;top=0;left=0;bottom=0;right=0;align=left;spacingLeft=6;overflow=hidden;whiteSpace=wrap;html=1;" parent="7I72lRixaY-VdKnY33JF-44" vertex="1">
          <mxGeometry x="70" width="110" height="30" as="geometry">
            <mxRectangle width="110" height="30" as="alternateBounds" />
          </mxGeometry>
        </mxCell>
        <mxCell id="7I72lRixaY-VdKnY33JF-47" value="" style="shape=tableRow;horizontal=0;startSize=0;swimlaneHead=0;swimlaneBody=0;fillColor=none;collapsible=0;dropTarget=0;points=[[0,0.5],[1,0.5]];portConstraint=eastwest;top=0;left=0;right=0;bottom=0;" parent="7I72lRixaY-VdKnY33JF-40" vertex="1">
          <mxGeometry y="90" width="180" height="30" as="geometry" />
        </mxCell>
        <mxCell id="7I72lRixaY-VdKnY33JF-48" value="varchar(65)" style="shape=partialRectangle;connectable=0;fillColor=none;top=0;left=0;bottom=0;right=0;editable=1;overflow=hidden;whiteSpace=wrap;html=1;" parent="7I72lRixaY-VdKnY33JF-47" vertex="1">
          <mxGeometry width="70" height="30" as="geometry">
            <mxRectangle width="70" height="30" as="alternateBounds" />
          </mxGeometry>
        </mxCell>
        <mxCell id="7I72lRixaY-VdKnY33JF-49" value="nazwa" style="shape=partialRectangle;connectable=0;fillColor=none;top=0;left=0;bottom=0;right=0;align=left;spacingLeft=6;overflow=hidden;whiteSpace=wrap;html=1;" parent="7I72lRixaY-VdKnY33JF-47" vertex="1">
          <mxGeometry x="70" width="110" height="30" as="geometry">
            <mxRectangle width="110" height="30" as="alternateBounds" />
          </mxGeometry>
        </mxCell>
        <mxCell id="7I72lRixaY-VdKnY33JF-53" value="Sekretarze" style="shape=table;startSize=30;container=1;collapsible=1;childLayout=tableLayout;fixedRows=1;rowLines=0;fontStyle=1;align=center;resizeLast=1;html=1;" parent="1" vertex="1">
          <mxGeometry x="340" y="60" width="180" height="90" as="geometry" />
        </mxCell>
        <mxCell id="7I72lRixaY-VdKnY33JF-54" value="" style="shape=tableRow;horizontal=0;startSize=0;swimlaneHead=0;swimlaneBody=0;fillColor=none;collapsible=0;dropTarget=0;points=[[0,0.5],[1,0.5]];portConstraint=eastwest;top=0;left=0;right=0;bottom=1;" parent="7I72lRixaY-VdKnY33JF-53" vertex="1">
          <mxGeometry y="30" width="180" height="30" as="geometry" />
        </mxCell>
        <mxCell id="7I72lRixaY-VdKnY33JF-55" value="PK" style="shape=partialRectangle;connectable=0;fillColor=none;top=0;left=0;bottom=0;right=0;fontStyle=1;overflow=hidden;whiteSpace=wrap;html=1;" parent="7I72lRixaY-VdKnY33JF-54" vertex="1">
          <mxGeometry width="30" height="30" as="geometry">
            <mxRectangle width="30" height="30" as="alternateBounds" />
          </mxGeometry>
        </mxCell>
        <mxCell id="7I72lRixaY-VdKnY33JF-56" value="id" style="shape=partialRectangle;connectable=0;fillColor=none;top=0;left=0;bottom=0;right=0;align=left;spacingLeft=6;fontStyle=5;overflow=hidden;whiteSpace=wrap;html=1;" parent="7I72lRixaY-VdKnY33JF-54" vertex="1">
          <mxGeometry x="30" width="150" height="30" as="geometry">
            <mxRectangle width="150" height="30" as="alternateBounds" />
          </mxGeometry>
        </mxCell>
        <mxCell id="7I72lRixaY-VdKnY33JF-57" value="" style="shape=tableRow;horizontal=0;startSize=0;swimlaneHead=0;swimlaneBody=0;fillColor=none;collapsible=0;dropTarget=0;points=[[0,0.5],[1,0.5]];portConstraint=eastwest;top=0;left=0;right=0;bottom=0;" parent="7I72lRixaY-VdKnY33JF-53" vertex="1">
          <mxGeometry y="60" width="180" height="30" as="geometry" />
        </mxCell>
        <mxCell id="7I72lRixaY-VdKnY33JF-58" value="FK" style="shape=partialRectangle;connectable=0;fillColor=none;top=0;left=0;bottom=0;right=0;editable=1;overflow=hidden;whiteSpace=wrap;html=1;" parent="7I72lRixaY-VdKnY33JF-57" vertex="1">
          <mxGeometry width="30" height="30" as="geometry">
            <mxRectangle width="30" height="30" as="alternateBounds" />
          </mxGeometry>
        </mxCell>
        <mxCell id="7I72lRixaY-VdKnY33JF-59" value="id_użytkownika" style="shape=partialRectangle;connectable=0;fillColor=none;top=0;left=0;bottom=0;right=0;align=left;spacingLeft=6;overflow=hidden;whiteSpace=wrap;html=1;" parent="7I72lRixaY-VdKnY33JF-57" vertex="1">
          <mxGeometry x="30" width="150" height="30" as="geometry">
            <mxRectangle width="150" height="30" as="alternateBounds" />
          </mxGeometry>
        </mxCell>
        <mxCell id="7I72lRixaY-VdKnY33JF-66" value="Użytkownicy" style="shape=table;startSize=30;container=1;collapsible=1;childLayout=tableLayout;fixedRows=1;rowLines=0;fontStyle=1;align=center;resizeLast=1;html=1;" parent="1" vertex="1">
          <mxGeometry x="80" y="180" width="180" height="270" as="geometry" />
        </mxCell>
        <mxCell id="7I72lRixaY-VdKnY33JF-67" value="" style="shape=tableRow;horizontal=0;startSize=0;swimlaneHead=0;swimlaneBody=0;fillColor=none;collapsible=0;dropTarget=0;points=[[0,0.5],[1,0.5]];portConstraint=eastwest;top=0;left=0;right=0;bottom=1;" parent="7I72lRixaY-VdKnY33JF-66" vertex="1">
          <mxGeometry y="30" width="180" height="30" as="geometry" />
        </mxCell>
        <mxCell id="7I72lRixaY-VdKnY33JF-68" value="PK" style="shape=partialRectangle;connectable=0;fillColor=none;top=0;left=0;bottom=0;right=0;fontStyle=1;overflow=hidden;whiteSpace=wrap;html=1;" parent="7I72lRixaY-VdKnY33JF-67" vertex="1">
          <mxGeometry width="80" height="30" as="geometry">
            <mxRectangle width="80" height="30" as="alternateBounds" />
          </mxGeometry>
        </mxCell>
        <mxCell id="7I72lRixaY-VdKnY33JF-69" value="id" style="shape=partialRectangle;connectable=0;fillColor=none;top=0;left=0;bottom=0;right=0;align=left;spacingLeft=6;fontStyle=5;overflow=hidden;whiteSpace=wrap;html=1;" parent="7I72lRixaY-VdKnY33JF-67" vertex="1">
          <mxGeometry x="80" width="100" height="30" as="geometry">
            <mxRectangle width="100" height="30" as="alternateBounds" />
          </mxGeometry>
        </mxCell>
        <mxCell id="7I72lRixaY-VdKnY33JF-70" value="" style="shape=tableRow;horizontal=0;startSize=0;swimlaneHead=0;swimlaneBody=0;fillColor=none;collapsible=0;dropTarget=0;points=[[0,0.5],[1,0.5]];portConstraint=eastwest;top=0;left=0;right=0;bottom=0;" parent="7I72lRixaY-VdKnY33JF-66" vertex="1">
          <mxGeometry y="60" width="180" height="30" as="geometry" />
        </mxCell>
        <mxCell id="7I72lRixaY-VdKnY33JF-71" value="text" style="shape=partialRectangle;connectable=0;fillColor=none;top=0;left=0;bottom=0;right=0;editable=1;overflow=hidden;whiteSpace=wrap;html=1;" parent="7I72lRixaY-VdKnY33JF-70" vertex="1">
          <mxGeometry width="80" height="30" as="geometry">
            <mxRectangle width="80" height="30" as="alternateBounds" />
          </mxGeometry>
        </mxCell>
        <mxCell id="7I72lRixaY-VdKnY33JF-72" value="imie" style="shape=partialRectangle;connectable=0;fillColor=none;top=0;left=0;bottom=0;right=0;align=left;spacingLeft=6;overflow=hidden;whiteSpace=wrap;html=1;" parent="7I72lRixaY-VdKnY33JF-70" vertex="1">
          <mxGeometry x="80" width="100" height="30" as="geometry">
            <mxRectangle width="100" height="30" as="alternateBounds" />
          </mxGeometry>
        </mxCell>
        <mxCell id="7I72lRixaY-VdKnY33JF-73" value="" style="shape=tableRow;horizontal=0;startSize=0;swimlaneHead=0;swimlaneBody=0;fillColor=none;collapsible=0;dropTarget=0;points=[[0,0.5],[1,0.5]];portConstraint=eastwest;top=0;left=0;right=0;bottom=0;" parent="7I72lRixaY-VdKnY33JF-66" vertex="1">
          <mxGeometry y="90" width="180" height="30" as="geometry" />
        </mxCell>
        <mxCell id="7I72lRixaY-VdKnY33JF-74" value="text" style="shape=partialRectangle;connectable=0;fillColor=none;top=0;left=0;bottom=0;right=0;editable=1;overflow=hidden;whiteSpace=wrap;html=1;" parent="7I72lRixaY-VdKnY33JF-73" vertex="1">
          <mxGeometry width="80" height="30" as="geometry">
            <mxRectangle width="80" height="30" as="alternateBounds" />
          </mxGeometry>
        </mxCell>
        <mxCell id="7I72lRixaY-VdKnY33JF-75" value="nazwisko" style="shape=partialRectangle;connectable=0;fillColor=none;top=0;left=0;bottom=0;right=0;align=left;spacingLeft=6;overflow=hidden;whiteSpace=wrap;html=1;" parent="7I72lRixaY-VdKnY33JF-73" vertex="1">
          <mxGeometry x="80" width="100" height="30" as="geometry">
            <mxRectangle width="100" height="30" as="alternateBounds" />
          </mxGeometry>
        </mxCell>
        <mxCell id="7I72lRixaY-VdKnY33JF-76" value="" style="shape=tableRow;horizontal=0;startSize=0;swimlaneHead=0;swimlaneBody=0;fillColor=none;collapsible=0;dropTarget=0;points=[[0,0.5],[1,0.5]];portConstraint=eastwest;top=0;left=0;right=0;bottom=0;" parent="7I72lRixaY-VdKnY33JF-66" vertex="1">
          <mxGeometry y="120" width="180" height="30" as="geometry" />
        </mxCell>
        <mxCell id="7I72lRixaY-VdKnY33JF-77" value="text" style="shape=partialRectangle;connectable=0;fillColor=none;top=0;left=0;bottom=0;right=0;editable=1;overflow=hidden;whiteSpace=wrap;html=1;" parent="7I72lRixaY-VdKnY33JF-76" vertex="1">
          <mxGeometry width="80" height="30" as="geometry">
            <mxRectangle width="80" height="30" as="alternateBounds" />
          </mxGeometry>
        </mxCell>
        <mxCell id="7I72lRixaY-VdKnY33JF-78" value="email" style="shape=partialRectangle;connectable=0;fillColor=none;top=0;left=0;bottom=0;right=0;align=left;spacingLeft=6;overflow=hidden;whiteSpace=wrap;html=1;" parent="7I72lRixaY-VdKnY33JF-76" vertex="1">
          <mxGeometry x="80" width="100" height="30" as="geometry">
            <mxRectangle width="100" height="30" as="alternateBounds" />
          </mxGeometry>
        </mxCell>
        <mxCell id="7I72lRixaY-VdKnY33JF-108" value="" style="shape=tableRow;horizontal=0;startSize=0;swimlaneHead=0;swimlaneBody=0;fillColor=none;collapsible=0;dropTarget=0;points=[[0,0.5],[1,0.5]];portConstraint=eastwest;top=0;left=0;right=0;bottom=0;" parent="7I72lRixaY-VdKnY33JF-66" vertex="1">
          <mxGeometry y="150" width="180" height="30" as="geometry" />
        </mxCell>
        <mxCell id="7I72lRixaY-VdKnY33JF-109" value="varchar(65)" style="shape=partialRectangle;connectable=0;fillColor=none;top=0;left=0;bottom=0;right=0;editable=1;overflow=hidden;" parent="7I72lRixaY-VdKnY33JF-108" vertex="1">
          <mxGeometry width="80" height="30" as="geometry">
            <mxRectangle width="80" height="30" as="alternateBounds" />
          </mxGeometry>
        </mxCell>
        <mxCell id="7I72lRixaY-VdKnY33JF-110" value="hasło" style="shape=partialRectangle;connectable=0;fillColor=none;top=0;left=0;bottom=0;right=0;align=left;spacingLeft=6;overflow=hidden;" parent="7I72lRixaY-VdKnY33JF-108" vertex="1">
          <mxGeometry x="80" width="100" height="30" as="geometry">
            <mxRectangle width="100" height="30" as="alternateBounds" />
          </mxGeometry>
        </mxCell>
        <mxCell id="7I72lRixaY-VdKnY33JF-111" value="" style="shape=tableRow;horizontal=0;startSize=0;swimlaneHead=0;swimlaneBody=0;fillColor=none;collapsible=0;dropTarget=0;points=[[0,0.5],[1,0.5]];portConstraint=eastwest;top=0;left=0;right=0;bottom=0;" parent="7I72lRixaY-VdKnY33JF-66" vertex="1">
          <mxGeometry y="180" width="180" height="30" as="geometry" />
        </mxCell>
        <mxCell id="7I72lRixaY-VdKnY33JF-112" value="timestamp" style="shape=partialRectangle;connectable=0;fillColor=none;top=0;left=0;bottom=0;right=0;editable=1;overflow=hidden;" parent="7I72lRixaY-VdKnY33JF-111" vertex="1">
          <mxGeometry width="80" height="30" as="geometry">
            <mxRectangle width="80" height="30" as="alternateBounds" />
          </mxGeometry>
        </mxCell>
        <mxCell id="7I72lRixaY-VdKnY33JF-113" value="data_utworzenia" style="shape=partialRectangle;connectable=0;fillColor=none;top=0;left=0;bottom=0;right=0;align=left;spacingLeft=6;overflow=hidden;" parent="7I72lRixaY-VdKnY33JF-111" vertex="1">
          <mxGeometry x="80" width="100" height="30" as="geometry">
            <mxRectangle width="100" height="30" as="alternateBounds" />
          </mxGeometry>
        </mxCell>
        <mxCell id="7I72lRixaY-VdKnY33JF-114" value="" style="shape=tableRow;horizontal=0;startSize=0;swimlaneHead=0;swimlaneBody=0;fillColor=none;collapsible=0;dropTarget=0;points=[[0,0.5],[1,0.5]];portConstraint=eastwest;top=0;left=0;right=0;bottom=0;" parent="7I72lRixaY-VdKnY33JF-66" vertex="1">
          <mxGeometry y="210" width="180" height="30" as="geometry" />
        </mxCell>
        <mxCell id="7I72lRixaY-VdKnY33JF-115" value="FK" style="shape=partialRectangle;connectable=0;fillColor=none;top=0;left=0;bottom=0;right=0;editable=1;overflow=hidden;" parent="7I72lRixaY-VdKnY33JF-114" vertex="1">
          <mxGeometry width="80" height="30" as="geometry">
            <mxRectangle width="80" height="30" as="alternateBounds" />
          </mxGeometry>
        </mxCell>
        <mxCell id="7I72lRixaY-VdKnY33JF-116" value="added_by" style="shape=partialRectangle;connectable=0;fillColor=none;top=0;left=0;bottom=0;right=0;align=left;spacingLeft=6;overflow=hidden;" parent="7I72lRixaY-VdKnY33JF-114" vertex="1">
          <mxGeometry x="80" width="100" height="30" as="geometry">
            <mxRectangle width="100" height="30" as="alternateBounds" />
          </mxGeometry>
        </mxCell>
        <mxCell id="7I72lRixaY-VdKnY33JF-117" value="" style="shape=tableRow;horizontal=0;startSize=0;swimlaneHead=0;swimlaneBody=0;fillColor=none;collapsible=0;dropTarget=0;points=[[0,0.5],[1,0.5]];portConstraint=eastwest;top=0;left=0;right=0;bottom=0;" parent="7I72lRixaY-VdKnY33JF-66" vertex="1">
          <mxGeometry y="240" width="180" height="30" as="geometry" />
        </mxCell>
        <mxCell id="7I72lRixaY-VdKnY33JF-118" value="tinyint(1)" style="shape=partialRectangle;connectable=0;fillColor=none;top=0;left=0;bottom=0;right=0;editable=1;overflow=hidden;" parent="7I72lRixaY-VdKnY33JF-117" vertex="1">
          <mxGeometry width="80" height="30" as="geometry">
            <mxRectangle width="80" height="30" as="alternateBounds" />
          </mxGeometry>
        </mxCell>
        <mxCell id="7I72lRixaY-VdKnY33JF-119" value="deleted" style="shape=partialRectangle;connectable=0;fillColor=none;top=0;left=0;bottom=0;right=0;align=left;spacingLeft=6;overflow=hidden;" parent="7I72lRixaY-VdKnY33JF-117" vertex="1">
          <mxGeometry x="80" width="100" height="30" as="geometry">
            <mxRectangle width="100" height="30" as="alternateBounds" />
          </mxGeometry>
        </mxCell>
        <mxCell id="7I72lRixaY-VdKnY33JF-79" value="Wyniki" style="shape=table;startSize=30;container=1;collapsible=1;childLayout=tableLayout;fixedRows=1;rowLines=0;fontStyle=1;align=center;resizeLast=1;html=1;" parent="1" vertex="1">
          <mxGeometry x="80" y="500" width="180" height="330" as="geometry" />
        </mxCell>
        <mxCell id="7I72lRixaY-VdKnY33JF-80" value="" style="shape=tableRow;horizontal=0;startSize=0;swimlaneHead=0;swimlaneBody=0;fillColor=none;collapsible=0;dropTarget=0;points=[[0,0.5],[1,0.5]];portConstraint=eastwest;top=0;left=0;right=0;bottom=1;" parent="7I72lRixaY-VdKnY33JF-79" vertex="1">
          <mxGeometry y="30" width="180" height="30" as="geometry" />
        </mxCell>
        <mxCell id="7I72lRixaY-VdKnY33JF-81" value="PK" style="shape=partialRectangle;connectable=0;fillColor=none;top=0;left=0;bottom=0;right=0;fontStyle=1;overflow=hidden;whiteSpace=wrap;html=1;" parent="7I72lRixaY-VdKnY33JF-80" vertex="1">
          <mxGeometry width="70" height="30" as="geometry">
            <mxRectangle width="70" height="30" as="alternateBounds" />
          </mxGeometry>
        </mxCell>
        <mxCell id="7I72lRixaY-VdKnY33JF-82" value="id" style="shape=partialRectangle;connectable=0;fillColor=none;top=0;left=0;bottom=0;right=0;align=left;spacingLeft=6;fontStyle=5;overflow=hidden;whiteSpace=wrap;html=1;" parent="7I72lRixaY-VdKnY33JF-80" vertex="1">
          <mxGeometry x="70" width="110" height="30" as="geometry">
            <mxRectangle width="110" height="30" as="alternateBounds" />
          </mxGeometry>
        </mxCell>
        <mxCell id="7I72lRixaY-VdKnY33JF-83" value="" style="shape=tableRow;horizontal=0;startSize=0;swimlaneHead=0;swimlaneBody=0;fillColor=none;collapsible=0;dropTarget=0;points=[[0,0.5],[1,0.5]];portConstraint=eastwest;top=0;left=0;right=0;bottom=0;" parent="7I72lRixaY-VdKnY33JF-79" vertex="1">
          <mxGeometry y="60" width="180" height="30" as="geometry" />
        </mxCell>
        <mxCell id="7I72lRixaY-VdKnY33JF-84" value="FK" style="shape=partialRectangle;connectable=0;fillColor=none;top=0;left=0;bottom=0;right=0;editable=1;overflow=hidden;whiteSpace=wrap;html=1;" parent="7I72lRixaY-VdKnY33JF-83" vertex="1">
          <mxGeometry width="70" height="30" as="geometry">
            <mxRectangle width="70" height="30" as="alternateBounds" />
          </mxGeometry>
        </mxCell>
        <mxCell id="7I72lRixaY-VdKnY33JF-85" value="id_głosowania" style="shape=partialRectangle;connectable=0;fillColor=none;top=0;left=0;bottom=0;right=0;align=left;spacingLeft=6;overflow=hidden;whiteSpace=wrap;html=1;" parent="7I72lRixaY-VdKnY33JF-83" vertex="1">
          <mxGeometry x="70" width="110" height="30" as="geometry">
            <mxRectangle width="110" height="30" as="alternateBounds" />
          </mxGeometry>
        </mxCell>
        <mxCell id="7I72lRixaY-VdKnY33JF-120" value="" style="shape=tableRow;horizontal=0;startSize=0;swimlaneHead=0;swimlaneBody=0;fillColor=none;collapsible=0;dropTarget=0;points=[[0,0.5],[1,0.5]];portConstraint=eastwest;top=0;left=0;right=0;bottom=0;" parent="7I72lRixaY-VdKnY33JF-79" vertex="1">
          <mxGeometry y="90" width="180" height="30" as="geometry" />
        </mxCell>
        <mxCell id="7I72lRixaY-VdKnY33JF-121" value="int(11)" style="shape=partialRectangle;connectable=0;fillColor=none;top=0;left=0;bottom=0;right=0;editable=1;overflow=hidden;" parent="7I72lRixaY-VdKnY33JF-120" vertex="1">
          <mxGeometry width="70" height="30" as="geometry">
            <mxRectangle width="70" height="30" as="alternateBounds" />
          </mxGeometry>
        </mxCell>
        <mxCell id="7I72lRixaY-VdKnY33JF-122" value="voting_users" style="shape=partialRectangle;connectable=0;fillColor=none;top=0;left=0;bottom=0;right=0;align=left;spacingLeft=6;overflow=hidden;" parent="7I72lRixaY-VdKnY33JF-120" vertex="1">
          <mxGeometry x="70" width="110" height="30" as="geometry">
            <mxRectangle width="110" height="30" as="alternateBounds" />
          </mxGeometry>
        </mxCell>
        <mxCell id="7I72lRixaY-VdKnY33JF-132" value="" style="shape=tableRow;horizontal=0;startSize=0;swimlaneHead=0;swimlaneBody=0;fillColor=none;collapsible=0;dropTarget=0;points=[[0,0.5],[1,0.5]];portConstraint=eastwest;top=0;left=0;right=0;bottom=0;" parent="7I72lRixaY-VdKnY33JF-79" vertex="1">
          <mxGeometry y="120" width="180" height="30" as="geometry" />
        </mxCell>
        <mxCell id="7I72lRixaY-VdKnY33JF-133" value="int(11)" style="shape=partialRectangle;connectable=0;fillColor=none;top=0;left=0;bottom=0;right=0;editable=1;overflow=hidden;" parent="7I72lRixaY-VdKnY33JF-132" vertex="1">
          <mxGeometry width="70" height="30" as="geometry">
            <mxRectangle width="70" height="30" as="alternateBounds" />
          </mxGeometry>
        </mxCell>
        <mxCell id="7I72lRixaY-VdKnY33JF-134" value="all_users" style="shape=partialRectangle;connectable=0;fillColor=none;top=0;left=0;bottom=0;right=0;align=left;spacingLeft=6;overflow=hidden;" parent="7I72lRixaY-VdKnY33JF-132" vertex="1">
          <mxGeometry x="70" width="110" height="30" as="geometry">
            <mxRectangle width="110" height="30" as="alternateBounds" />
          </mxGeometry>
        </mxCell>
        <mxCell id="7I72lRixaY-VdKnY33JF-129" value="" style="shape=tableRow;horizontal=0;startSize=0;swimlaneHead=0;swimlaneBody=0;fillColor=none;collapsible=0;dropTarget=0;points=[[0,0.5],[1,0.5]];portConstraint=eastwest;top=0;left=0;right=0;bottom=0;" parent="7I72lRixaY-VdKnY33JF-79" vertex="1">
          <mxGeometry y="150" width="180" height="30" as="geometry" />
        </mxCell>
        <mxCell id="7I72lRixaY-VdKnY33JF-130" value="text" style="shape=partialRectangle;connectable=0;fillColor=none;top=0;left=0;bottom=0;right=0;editable=1;overflow=hidden;" parent="7I72lRixaY-VdKnY33JF-129" vertex="1">
          <mxGeometry width="70" height="30" as="geometry">
            <mxRectangle width="70" height="30" as="alternateBounds" />
          </mxGeometry>
        </mxCell>
        <mxCell id="7I72lRixaY-VdKnY33JF-131" value="winner_opt" style="shape=partialRectangle;connectable=0;fillColor=none;top=0;left=0;bottom=0;right=0;align=left;spacingLeft=6;overflow=hidden;" parent="7I72lRixaY-VdKnY33JF-129" vertex="1">
          <mxGeometry x="70" width="110" height="30" as="geometry">
            <mxRectangle width="110" height="30" as="alternateBounds" />
          </mxGeometry>
        </mxCell>
        <mxCell id="7I72lRixaY-VdKnY33JF-123" value="" style="shape=tableRow;horizontal=0;startSize=0;swimlaneHead=0;swimlaneBody=0;fillColor=none;collapsible=0;dropTarget=0;points=[[0,0.5],[1,0.5]];portConstraint=eastwest;top=0;left=0;right=0;bottom=0;" parent="7I72lRixaY-VdKnY33JF-79" vertex="1">
          <mxGeometry y="180" width="180" height="30" as="geometry" />
        </mxCell>
        <mxCell id="7I72lRixaY-VdKnY33JF-124" value="int(11)" style="shape=partialRectangle;connectable=0;fillColor=none;top=0;left=0;bottom=0;right=0;editable=1;overflow=hidden;" parent="7I72lRixaY-VdKnY33JF-123" vertex="1">
          <mxGeometry width="70" height="30" as="geometry">
            <mxRectangle width="70" height="30" as="alternateBounds" />
          </mxGeometry>
        </mxCell>
        <mxCell id="7I72lRixaY-VdKnY33JF-125" value="winner_votes" style="shape=partialRectangle;connectable=0;fillColor=none;top=0;left=0;bottom=0;right=0;align=left;spacingLeft=6;overflow=hidden;" parent="7I72lRixaY-VdKnY33JF-123" vertex="1">
          <mxGeometry x="70" width="110" height="30" as="geometry">
            <mxRectangle width="110" height="30" as="alternateBounds" />
          </mxGeometry>
        </mxCell>
        <mxCell id="7I72lRixaY-VdKnY33JF-126" value="" style="shape=tableRow;horizontal=0;startSize=0;swimlaneHead=0;swimlaneBody=0;fillColor=none;collapsible=0;dropTarget=0;points=[[0,0.5],[1,0.5]];portConstraint=eastwest;top=0;left=0;right=0;bottom=0;" parent="7I72lRixaY-VdKnY33JF-79" vertex="1">
          <mxGeometry y="210" width="180" height="30" as="geometry" />
        </mxCell>
        <mxCell id="7I72lRixaY-VdKnY33JF-127" value="int(11)" style="shape=partialRectangle;connectable=0;fillColor=none;top=0;left=0;bottom=0;right=0;editable=1;overflow=hidden;" parent="7I72lRixaY-VdKnY33JF-126" vertex="1">
          <mxGeometry width="70" height="30" as="geometry">
            <mxRectangle width="70" height="30" as="alternateBounds" />
          </mxGeometry>
        </mxCell>
        <mxCell id="7I72lRixaY-VdKnY33JF-128" value="kworum_type" style="shape=partialRectangle;connectable=0;fillColor=none;top=0;left=0;bottom=0;right=0;align=left;spacingLeft=6;overflow=hidden;" parent="7I72lRixaY-VdKnY33JF-126" vertex="1">
          <mxGeometry x="70" width="110" height="30" as="geometry">
            <mxRectangle width="110" height="30" as="alternateBounds" />
          </mxGeometry>
        </mxCell>
        <mxCell id="7I72lRixaY-VdKnY33JF-86" value="" style="shape=tableRow;horizontal=0;startSize=0;swimlaneHead=0;swimlaneBody=0;fillColor=none;collapsible=0;dropTarget=0;points=[[0,0.5],[1,0.5]];portConstraint=eastwest;top=0;left=0;right=0;bottom=0;" parent="7I72lRixaY-VdKnY33JF-79" vertex="1">
          <mxGeometry y="240" width="180" height="30" as="geometry" />
        </mxCell>
        <mxCell id="7I72lRixaY-VdKnY33JF-87" value="int(11)" style="shape=partialRectangle;connectable=0;fillColor=none;top=0;left=0;bottom=0;right=0;editable=1;overflow=hidden;whiteSpace=wrap;html=1;" parent="7I72lRixaY-VdKnY33JF-86" vertex="1">
          <mxGeometry width="70" height="30" as="geometry">
            <mxRectangle width="70" height="30" as="alternateBounds" />
          </mxGeometry>
        </mxCell>
        <mxCell id="7I72lRixaY-VdKnY33JF-88" value="kworum_ok" style="shape=partialRectangle;connectable=0;fillColor=none;top=0;left=0;bottom=0;right=0;align=left;spacingLeft=6;overflow=hidden;whiteSpace=wrap;html=1;" parent="7I72lRixaY-VdKnY33JF-86" vertex="1">
          <mxGeometry x="70" width="110" height="30" as="geometry">
            <mxRectangle width="110" height="30" as="alternateBounds" />
          </mxGeometry>
        </mxCell>
        <mxCell id="7I72lRixaY-VdKnY33JF-135" value="" style="shape=tableRow;horizontal=0;startSize=0;swimlaneHead=0;swimlaneBody=0;fillColor=none;collapsible=0;dropTarget=0;points=[[0,0.5],[1,0.5]];portConstraint=eastwest;top=0;left=0;right=0;bottom=0;" parent="7I72lRixaY-VdKnY33JF-79" vertex="1">
          <mxGeometry y="270" width="180" height="30" as="geometry" />
        </mxCell>
        <mxCell id="7I72lRixaY-VdKnY33JF-136" value="text" style="shape=partialRectangle;connectable=0;fillColor=none;top=0;left=0;bottom=0;right=0;editable=1;overflow=hidden;" parent="7I72lRixaY-VdKnY33JF-135" vertex="1">
          <mxGeometry width="70" height="30" as="geometry">
            <mxRectangle width="70" height="30" as="alternateBounds" />
          </mxGeometry>
        </mxCell>
        <mxCell id="7I72lRixaY-VdKnY33JF-137" value="powód" style="shape=partialRectangle;connectable=0;fillColor=none;top=0;left=0;bottom=0;right=0;align=left;spacingLeft=6;overflow=hidden;" parent="7I72lRixaY-VdKnY33JF-135" vertex="1">
          <mxGeometry x="70" width="110" height="30" as="geometry">
            <mxRectangle width="110" height="30" as="alternateBounds" />
          </mxGeometry>
        </mxCell>
        <mxCell id="7I72lRixaY-VdKnY33JF-89" value="" style="shape=tableRow;horizontal=0;startSize=0;swimlaneHead=0;swimlaneBody=0;fillColor=none;collapsible=0;dropTarget=0;points=[[0,0.5],[1,0.5]];portConstraint=eastwest;top=0;left=0;right=0;bottom=0;" parent="7I72lRixaY-VdKnY33JF-79" vertex="1">
          <mxGeometry y="300" width="180" height="30" as="geometry" />
        </mxCell>
        <mxCell id="7I72lRixaY-VdKnY33JF-90" value="timestamp" style="shape=partialRectangle;connectable=0;fillColor=none;top=0;left=0;bottom=0;right=0;editable=1;overflow=hidden;whiteSpace=wrap;html=1;" parent="7I72lRixaY-VdKnY33JF-89" vertex="1">
          <mxGeometry width="70" height="30" as="geometry">
            <mxRectangle width="70" height="30" as="alternateBounds" />
          </mxGeometry>
        </mxCell>
        <mxCell id="7I72lRixaY-VdKnY33JF-91" value="generation_time" style="shape=partialRectangle;connectable=0;fillColor=none;top=0;left=0;bottom=0;right=0;align=left;spacingLeft=6;overflow=hidden;whiteSpace=wrap;html=1;" parent="7I72lRixaY-VdKnY33JF-89" vertex="1">
          <mxGeometry x="70" width="110" height="30" as="geometry">
            <mxRectangle width="110" height="30" as="alternateBounds" />
          </mxGeometry>
        </mxCell>
        <mxCell id="7I72lRixaY-VdKnY33JF-138" style="edgeStyle=orthogonalEdgeStyle;rounded=0;orthogonalLoop=1;jettySize=auto;html=1;entryX=0;entryY=0.5;entryDx=0;entryDy=0;endArrow=ERmany;endFill=0;" parent="1" source="7I72lRixaY-VdKnY33JF-2" target="7I72lRixaY-VdKnY33JF-114" edge="1">
          <mxGeometry relative="1" as="geometry" />
        </mxCell>
        <mxCell id="7I72lRixaY-VdKnY33JF-139" style="edgeStyle=orthogonalEdgeStyle;rounded=0;orthogonalLoop=1;jettySize=auto;html=1;entryX=1;entryY=0.5;entryDx=0;entryDy=0;endArrow=none;endFill=0;" parent="1" target="7I72lRixaY-VdKnY33JF-5" edge="1">
          <mxGeometry relative="1" as="geometry">
            <mxPoint x="260" y="220" as="sourcePoint" />
            <Array as="points">
              <mxPoint x="280" y="220" />
              <mxPoint x="280" y="135" />
            </Array>
          </mxGeometry>
        </mxCell>
        <mxCell id="7I72lRixaY-VdKnY33JF-140" style="edgeStyle=orthogonalEdgeStyle;rounded=0;orthogonalLoop=1;jettySize=auto;html=1;exitX=1;exitY=0.5;exitDx=0;exitDy=0;endArrow=none;endFill=0;" parent="1" source="7I72lRixaY-VdKnY33JF-67" target="7I72lRixaY-VdKnY33JF-57" edge="1">
          <mxGeometry relative="1" as="geometry" />
        </mxCell>
        <mxCell id="7I72lRixaY-VdKnY33JF-142" style="edgeStyle=orthogonalEdgeStyle;rounded=0;orthogonalLoop=1;jettySize=auto;html=1;exitX=1;exitY=0.5;exitDx=0;exitDy=0;entryX=0;entryY=0.5;entryDx=0;entryDy=0;endArrow=ERmany;endFill=0;" parent="1" source="7I72lRixaY-VdKnY33JF-67" target="7I72lRixaY-VdKnY33JF-31" edge="1">
          <mxGeometry relative="1" as="geometry">
            <Array as="points">
              <mxPoint x="260" y="230" />
              <mxPoint x="305" y="230" />
              <mxPoint x="305" y="265" />
            </Array>
          </mxGeometry>
        </mxCell>
        <mxCell id="7I72lRixaY-VdKnY33JF-143" style="edgeStyle=orthogonalEdgeStyle;rounded=0;orthogonalLoop=1;jettySize=auto;html=1;entryX=1;entryY=0.5;entryDx=0;entryDy=0;endArrow=ERmany;endFill=0;" parent="1" source="7I72lRixaY-VdKnY33JF-41" target="7I72lRixaY-VdKnY33JF-34" edge="1">
          <mxGeometry relative="1" as="geometry" />
        </mxCell>
        <mxCell id="7I72lRixaY-VdKnY33JF-144" style="edgeStyle=orthogonalEdgeStyle;rounded=0;orthogonalLoop=1;jettySize=auto;html=1;entryX=0;entryY=0.5;entryDx=0;entryDy=0;endArrow=ERmany;endFill=0;" parent="1" source="7I72lRixaY-VdKnY33JF-15" target="7I72lRixaY-VdKnY33JF-44" edge="1">
          <mxGeometry relative="1" as="geometry" />
        </mxCell>
        <mxCell id="7I72lRixaY-VdKnY33JF-145" style="edgeStyle=orthogonalEdgeStyle;rounded=0;orthogonalLoop=1;jettySize=auto;html=1;entryX=1;entryY=0.5;entryDx=0;entryDy=0;endArrow=none;endFill=0;" parent="1" source="7I72lRixaY-VdKnY33JF-15" target="7I72lRixaY-VdKnY33JF-83" edge="1">
          <mxGeometry relative="1" as="geometry" />
        </mxCell>
      </root>
    </mxGraphModel>
  </diagram>
</mxfile>
